<?xml version="1.0"?>
<svg version="1.1" xmlns="http://www.w3.org/2000/svg" width="200" height="45" style=""><path fill="#e94949" d="M16.04248046875,18.330078125q0-0.80322265625,0.042724609375-1.58935546875t0.145263671875-1.55517578125q0.068359375-0.39306640625,0.606689453125-0.56396484375t0.897216796875-0.1708984375l0.41015625,0.0341796875q0.49560546875,0.068359375,0.999755859375-0.068359375t0.999755859375-0.13671875q1.162109375,0,2.59765625,0.25634765625t2.691650390625,0.87158203125t2.110595703125,1.614990234375t0.8544921875,2.469482421875t-0.888671875,2.742919921875t-2.23876953125,2.23876953125t-2.9052734375,1.512451171875t-2.85400390625,0.546875q0.13671875,3.29833984375,0.384521484375,6.54541015625t0.845947265625,6.494140625l0.0341796875,0.22216796875q0,0.2392578125-0.213623046875,0.39306640625t-0.504150390625,0.247802734375t-0.589599609375,0.128173828125t-0.487060546875,0.0341796875q-0.42724609375,0-1.033935546875-0.162353515625t-0.743408203125-0.640869140625q-0.39306640625-1.50390625-0.615234375-3.306884765625t-0.32470703125-3.768310546875t-0.145263671875-3.956298828125t-0.042724609375-3.887939453125l0-3.84521484375q0-0.63232421875-0.01708984375-1.31591796875t-0.01708984375-1.38427734375z M19.2724609375,15.5615234375q0,2.34130859375,0.05126953125,4.674072265625t0.11962890625,4.674072265625q1.00830078125-0.205078125,2.059326171875-0.726318359375t1.89697265625-1.239013671875t1.3671875-1.632080078125t0.521240234375-1.922607421875q0-0.90576171875-0.452880859375-1.62353515625t-1.170654296875-1.23046875q-0.70068359375-0.49560546875-1.58935546875-0.76904296875q-0.7861328125-0.2392578125-1.5380859375-0.2392578125l-0.18798828125,0z M31.896215820312,28.84033203125q0-0.70068359375,0.247802734375-1.17919921875t1.051025390625-0.478515625q0.3076171875,0,0.76904296875,0.093994140625t0.52978515625,0.469970703125q0.1708984375,1.00830078125,0.18798828125,2.1875t0.11962890625,2.2216796875q0.39306640625-0.76904296875,1.00830078125-1.65771484375t1.4013671875-1.640625t1.708984375-1.24755859375t1.8798828125-0.49560546875q0.068359375,0,0.25634765625,0.05126953125t0.350341796875,0.145263671875t0.196533203125,0.213623046875t-0.18798828125,0.22216796875q-0.068359375,0.205078125-0.29052734375,0.247802734375t-0.39306640625,0.042724609375q-0.1025390625,0-0.32470703125-0.08544921875q-1.2646484375,0.66650390625-2.1533203125,1.8115234375t-1.45263671875,2.537841796875t-0.8203125,2.939453125t-0.25634765625,3.016357421875q0,0.73486328125-0.333251953125,0.888671875t-1.068115234375,0.15380859375q-0.39306640625,0-0.828857421875-0.08544921875t-0.606689453125-0.546875q-0.3076171875-0.97412109375-0.504150390625-2.23876953125t-0.299072265625-2.606201171875t-0.145263671875-2.640380859375t-0.042724609375-2.34130859375z M43.699658203125,33.9501953125q0-0.97412109375,0.247802734375-2.008056640625t0.7861328125-1.86279296875t1.358642578125-1.35009765625t1.982421875-0.521240234375q0.87158203125,0,1.837158203125,0.299072265625t1.768798828125,0.8544921875t1.307373046875,1.358642578125t0.504150390625,1.79443359375q0,1.1962890625-0.435791015625,2.27294921875t-1.221923828125,1.922607421875t-1.837158203125,1.3330078125t-2.281494140625,0.487060546875q-1.00830078125,0-1.76025390625-0.367431640625t-1.256103515625-0.982666015625t-0.751953125-1.45263671875t-0.247802734375-1.77734375z M46.211865234375,33.916015625q0,0.3076171875,0.093994140625,0.90576171875t0.281982421875,1.170654296875t0.487060546875,0.9912109375t0.726318359375,0.384521484375q0.90576171875-0.1025390625,1.495361328125-0.589599609375t0.95703125-1.187744140625t0.5126953125-1.52099609375t0.145263671875-1.55517578125q0-0.93994140625-0.367431640625-1.572265625t-1.204833984375-1.025390625q0,0.0341796875,0.0341796875,0.0341796875t0.0341796875-0.0341796875l-0.42724609375-0.1025390625q-0.1708984375-0.068359375-0.418701171875-0.15380859375t-0.487060546875-0.3759765625q-0.66650390625,0.2392578125-1.033935546875,0.615234375t-0.555419921875,0.914306640625t-0.230712890625,1.290283203125t-0.042724609375,1.8115234375z M62.2650390625,15.68115234375q0-0.2392578125,0.333251953125-0.367431640625t0.435791015625-0.128173828125l0.63232421875-0.1025390625q0.63232421875-0.1025390625,1.28173828125-0.179443359375t1.2646484375-0.145263671875q2.17041015625-0.2734375,4.3408203125-0.538330078125t4.375-0.264892578125q0.1708984375,0,0.469970703125,0.01708984375t0.59814453125,0.093994140625t0.5126953125,0.213623046875t0.213623046875,0.3759765625q0,0.1708984375-0.162353515625,0.299072265625t-0.384521484375,0.196533203125t-0.452880859375,0.08544921875t-0.367431640625,0.01708984375l-0.299072265625,0t-0.299072265625-0.068359375q-0.90576171875,0-1.785888671875,0.08544921875t-1.785888671875,0.15380859375q0.2392578125,0.2734375,0.25634765625,0.76904296875t0.0341796875,0.8544921875q0,6.0498046875,0.08544921875,12.03125t0.15380859375,12.08251953125l0,0.0341796875q-0.56396484375,0.49560546875-0.965576171875,0.63232421875t-0.811767578125,0.13671875q-0.39306640625,0-0.794677734375-0.145263671875t-0.965576171875-0.623779296875l0-0.0341796875l0.13671875-13.41552734375q0-1.3330078125-0.0341796875-2.939453125t-0.0341796875-3.255615234375t0.05126953125-3.187255859375t0.2734375-2.68310546875q-1.00830078125,0.1025390625-2.13623046875,0.3076171875q-0.97412109375,0.1708984375-1.86279296875,0.1708984375l-0.3076171875,0q-0.068359375,0-0.401611328125,0.01708984375t-0.68359375-0.01708984375t-0.63232421875-0.13671875t-0.281982421875-0.341796875z M79.161254882812,34.326171875q0-1.1962890625,0.264892578125-2.81982421875t0.897216796875-3.076171875t1.666259765625-2.469482421875t2.606201171875-1.016845703125q1.4697265625,0,2.20458984375,0.845947265625t0.73486328125,2.281494140625q0,0.93994140625-0.350341796875,2.059326171875t-0.999755859375,2.119140625t-1.5380859375,1.666259765625t-1.982421875,0.66650390625l-0.4443359375-0.0341796875q0,0.46142578125,0.13671875,1.239013671875t0.401611328125,1.546630859375t0.68359375,1.35009765625t1.016845703125,0.5810546875q0.87158203125,0,1.6748046875-0.70068359375t1.52099609375-1.55517578125t1.3330078125-1.55517578125t1.1279296875-0.70068359375q0.2734375,0,0.56396484375,0.08544921875t0.32470703125,0.478515625q0,0.2392578125-0.128173828125,0.39306640625t-0.230712890625,0.341796875q-0.52978515625,0.90576171875-1.153564453125,1.72607421875t-1.409912109375,1.48681640625t-1.717529296875,1.051025390625t-2.059326171875,0.384521484375q-1.4697265625,0-2.44384765625-0.521240234375t-1.572265625-1.4013671875t-0.863037109375-2.03369140625t-0.264892578125-2.418212890625z M82.220336914062,33.02734375l0.478515625,0.42724609375q0.341796875,0.3076171875,0.68359375,0.13671875t0.615234375-0.623779296875t0.504150390625-1.119384765625t0.41015625-1.3671875t0.264892578125-1.3671875t0.08544921875-1.11083984375l0-0.5810546875t-0.05126953125-0.615234375t-0.179443359375-0.487060546875t-0.401611328125-0.247802734375q-0.08544921875-0.01708984375-0.15380859375-0.01708984375q-0.5810546875,0-0.9912109375,0.73486328125q-0.4443359375,0.8203125-0.7177734375,1.990966796875t-0.39306640625,2.401123046875t-0.15380859375,1.845703125z M93.459814453125,33.7109375l0-0.49560546875q0-0.615234375,0.0341796875-1.162109375q0.0341796875-0.76904296875,0.0341796875-1.2646484375q0-0.2734375,0.0341796875-0.623779296875t0.1708984375-0.555419921875q0.1708984375-0.1708984375,0.401611328125-0.350341796875t0.504150390625-0.179443359375q0.87158203125,0,1.3671875,0.196533203125t0.52978515625,0.811767578125l0.068359375,0.52978515625q0.3076171875-0.73486328125,0.8203125-1.820068359375t1.187744140625-2.06787109375t1.52099609375-1.6748046875t1.785888671875-0.692138671875q0.87158203125,0,1.435546875,0.8203125t0.897216796875,2.093505859375t0.469970703125,2.8369140625t0.18798828125,3.067626953125t0.068359375,2.742919921875t0.11962890625,1.871337890625q0.068359375,0.52978515625,0.230712890625,1.119384765625t0.162353515625,1.085205078125q0,0.13671875-0.196533203125,0.264892578125t-0.418701171875,0.213623046875t-0.452880859375,0.13671875t-0.333251953125,0.05126953125q-0.66650390625,0-0.948486328125-0.999755859375t-0.350341796875-2.503662109375t-0.068359375-3.255615234375t-0.11962890625-3.255615234375t-0.487060546875-2.503662109375t-1.170654296875-1.033935546875q-0.73486328125,0-1.52099609375,0.948486328125t-1.35009765625,2.520751953125q-0.546875,1.572265625-0.751953125,3.57177734375q-0.068359375,0.63232421875-0.068359375,1.2646484375q0,1.38427734375,0.29052734375,2.7685546875q0.0341796875,0.2392578125-0.196533203125,0.35888671875t-0.572509765625,0.18798828125t-0.692138671875,0.08544921875t-0.538330078125,0.01708984375q-0.66650390625,0-1.068115234375-0.469970703125t-0.623779296875-1.204833984375t-0.299072265625-1.649169921875t-0.093994140625-1.802978515625z M108.28815917969,22.7734375q0-0.2392578125,0.5126953125-0.41015625t1.162109375-0.281982421875t1.256103515625-0.162353515625t0.828857421875-0.08544921875q0-0.46142578125,0.0341796875-0.931396484375t0.18798828125-0.83740234375t0.487060546875-0.589599609375t0.931396484375-0.22216796875q0.49560546875,0,0.751953125,0.11962890625t0.546875,0.49560546875q0.068359375,0.205078125,0.068359375,0.39306640625l0,0.572509765625t-0.0341796875,0.589599609375q0.63232421875-0.068359375,1.256103515625-0.162353515625t1.256103515625-0.093994140625q0.46142578125,0,0.63232421875,0.01708984375t0.341796875,0.41015625q0.13671875,0.39306640625-0.333251953125,0.59814453125t-1.1279296875,0.3076171875t-1.307373046875,0.15380859375t-0.7861328125,0.05126953125q-0.205078125,2.939453125-0.418701171875,5.82763671875t-0.213623046875,5.86181640625q0,1.3330078125,0.08544921875,2.75146484375t0.478515625,2.68310546875q0.1025390625,0.39306640625,0.341796875,0.73486328125t0.2392578125,0.73486328125q0,0.2392578125-0.18798828125,0.3759765625t-0.452880859375,0.230712890625t-0.52978515625,0.111083984375t-0.435791015625,0.01708984375q-1.07666015625,0-1.640625-0.80322265625t-0.811767578125-1.922607421875t-0.264892578125-2.298583984375t-0.01708984375-1.9140625q0-1.50390625,0.059814453125-3.076171875t0.145263671875-3.1103515625t0.2392578125-3.0078125t0.35888671875-2.734375q-0.59814453125,0.068359375-1.170654296875,0.15380859375t-1.170654296875,0.08544921875q-0.13671875,0-0.367431640625-0.01708984375t-0.435791015625-0.08544921875t-0.350341796875-0.18798828125t-0.145263671875-0.341796875z M121.35625,33.62548828125q0-1.162109375,0.316162109375-2.23876953125t0.948486328125-1.922607421875t1.580810546875-1.35009765625t2.196044921875-0.504150390625q0.76904296875,0,1.700439453125,0.230712890625t1.751708984375,0.68359375t1.3671875,1.153564453125t0.546875,1.6064453125q0,0.42724609375-0.145263671875,0.6494140625t-0.589599609375,0.22216796875l-0.18798828125-0.0341796875q0.49560546875,1.3330078125,0.8544921875,2.734375t0.70068359375,2.802734375q0.13671875,0.2734375,0.205078125,0.487060546875t0.068359375,0.418701171875q0,0.2734375-0.15380859375,0.452880859375t-0.401611328125,0.264892578125t-0.5126953125,0.11962890625t-0.469970703125,0.0341796875q-0.73486328125,0-1.102294921875-0.25634765625t-0.52978515625-0.70068359375t-0.196533203125-0.999755859375t-0.13671875-1.119384765625q-0.205078125,0.66650390625-0.538330078125,1.298828125t-0.7861328125,1.136474609375t-1.068115234375,0.80322265625t-1.38427734375,0.299072265625q-1.1279296875,0-1.89697265625-0.6494140625t-1.239013671875-1.597900390625t-0.68359375-2.025146484375t-0.213623046875-1.99951171875z M123.7830078125,33.38623046875q0,0.63232421875,0.08544921875,1.3330078125t0.281982421875,1.38427734375t0.504150390625,1.290283203125t0.76904296875,1.068115234375q0.83740234375-0.90576171875,1.239013671875-2.20458984375t0.7177734375-2.503662109375t0.7177734375-2.06787109375t1.239013671875-0.863037109375q0.52978515625,0,0.888671875,0.18798828125q-0.1708984375-0.42724609375-0.56396484375-0.828857421875t-0.880126953125-0.73486328125t-1.00830078125-0.546875t-0.982666015625-0.213623046875q-0.13671875,0-0.316162109375,0.042724609375t-0.281982421875,0.008544921875q-0.70068359375,0.205078125-1.153564453125,0.709228515625t-0.73486328125,1.187744140625t-0.401611328125,1.4013671875t-0.11962890625,1.35009765625z M136.16750488281,33.28369140625q0-1.23046875,0.316162109375-2.469482421875t0.982666015625-2.2216796875t1.700439453125-1.597900390625t2.435302734375-0.615234375q0.59814453125,0,1.31591796875,0.145263671875t1.324462890625,0.46142578125t1.025390625,0.8203125t0.418701171875,1.239013671875q0,0.46142578125-0.2392578125,0.615234375t-0.63232421875,0.15380859375l-0.11962890625-0.1708984375t-0.333251953125-0.435791015625t-0.452880859375-0.56396484375t-0.46142578125-0.504150390625q-0.70068359375-0.70068359375-1.31591796875-0.751953125l-0.13671875,0q-0.5126953125,0-0.95703125,0.3076171875q-0.49560546875,0.3759765625-0.880126953125,1.0595703125t-0.640869140625,1.45263671875t-0.401611328125,1.55517578125t-0.145263671875,1.298828125q0,0.70068359375,0.162353515625,1.597900390625t0.546875,1.700439453125t0.97412109375,1.35009765625t1.512451171875,0.546875q0.83740234375,0,1.52099609375-0.41015625t1.307373046875-0.914306640625t1.221923828125-0.90576171875t1.23046875-0.401611328125q0.2734375,0,0.555419921875,0.068359375t0.281982421875,0.35888671875l0,0.1025390625q-0.3076171875,0.80322265625-1.04248046875,1.41845703125t-1.649169921875,1.068115234375t-1.89697265625,0.675048828125t-1.751708984375,0.22216796875q-1.435546875,0-2.520751953125-0.469970703125t-1.802978515625-1.290283203125t-1.085205078125-1.973876953125t-0.367431640625-2.520751953125z M151.08129882813,39.6923828125q0-0.49560546875,0.042724609375-1.04248046875t0.076904296875-1.025390625l0.1025390625-2.5634765625q0.1708984375-3.076171875,0.418701171875-6.0498046875t0.418701171875-6.015625q0.1025390625-1.6748046875,0.15380859375-3.289794921875t0.15380859375-3.289794921875q-0.068359375-0.13671875-0.068359375-0.18798828125q0-0.2392578125,0.179443359375-0.3759765625t0.418701171875-0.230712890625t0.504150390625-0.128173828125t0.401611328125-0.0341796875l0.39306640625,0q0.52978515625,0.068359375,0.76904296875,0.333251953125t0.3076171875,0.63232421875t0.0341796875,0.7861328125t-0.0341796875,0.777587890625q0,2.47802734375-0.11962890625,5.050048828125t-0.2734375,5.1611328125t-0.281982421875,5.17822265625t-0.128173828125,5.118408203125l0,1.1962890625q0,0.80322265625-0.452880859375,1.0595703125t-1.256103515625,0.25634765625q-0.70068359375,0-1.23046875-0.3076171875t-0.52978515625-1.00830078125z M158.91989746094,34.326171875q0-1.1962890625,0.264892578125-2.81982421875t0.897216796875-3.076171875t1.666259765625-2.469482421875t2.606201171875-1.016845703125q1.4697265625,0,2.20458984375,0.845947265625t0.73486328125,2.281494140625q0,0.93994140625-0.350341796875,2.059326171875t-0.999755859375,2.119140625t-1.5380859375,1.666259765625t-1.982421875,0.66650390625l-0.4443359375-0.0341796875q0,0.46142578125,0.13671875,1.239013671875t0.401611328125,1.546630859375t0.68359375,1.35009765625t1.016845703125,0.5810546875q0.87158203125,0,1.6748046875-0.70068359375t1.52099609375-1.55517578125t1.3330078125-1.55517578125t1.1279296875-0.70068359375q0.2734375,0,0.56396484375,0.08544921875t0.32470703125,0.478515625q0,0.2392578125-0.128173828125,0.39306640625t-0.230712890625,0.341796875q-0.52978515625,0.90576171875-1.153564453125,1.72607421875t-1.409912109375,1.48681640625t-1.717529296875,1.051025390625t-2.059326171875,0.384521484375q-1.4697265625,0-2.44384765625-0.521240234375t-1.572265625-1.4013671875t-0.863037109375-2.03369140625t-0.264892578125-2.418212890625z M161.97897949219,33.02734375l0.478515625,0.42724609375q0.341796875,0.3076171875,0.68359375,0.13671875t0.615234375-0.623779296875t0.504150390625-1.119384765625t0.41015625-1.3671875t0.264892578125-1.3671875t0.08544921875-1.11083984375l0-0.5810546875t-0.05126953125-0.615234375t-0.179443359375-0.487060546875t-0.401611328125-0.247802734375q-0.08544921875-0.01708984375-0.15380859375-0.01708984375q-0.5810546875,0-0.9912109375,0.73486328125q-0.4443359375,0.8203125-0.7177734375,1.990966796875t-0.39306640625,2.401123046875t-0.15380859375,1.845703125z"/><path fill="#" d=""/></svg>
